<svg xmlns="http://www.w3.org/2000/svg" viewBox="0 0 1056 482" width="1056" height="482"><defs><clipPath id="a"><path d="M83.7 63.567h150v69.9h-150z"/></clipPath><clipPath id="b"><path d="M255.7 63.567h150v69.9h-150z"/></clipPath><clipPath id="c"><path d="M303.7 217.5h150v69.9h-150z"/></clipPath><clipPath id="d"><path d="M473.7 217.5h150v69.9h-150z"/></clipPath><clipPath id="e"><path d="M643.7 217.5h150v69.9h-150z"/></clipPath><clipPath id="f"><path d="M813.7 217.5h158.8v69.9H813.7z"/></clipPath><clipPath id="g"><path d="M303.7 372.633h150v69.9h-150z"/></clipPath><clipPath id="h"><path d="M473.7 372.633h150v69.9h-150z"/></clipPath></defs><g fill="none"><title>Flow of the CI/CD pipeline</title><path fill="#fff" d="M0 0h1056v482H0z"/><title>Layer 2</title><title>zone external - green</title><path fill="#e5f5fd" d="M63.5 20h361.2v133.467H63.5z"/><text transform="translate(73.5 35)" fill="#757575"><tspan font-family="Roboto" font-size="10" font-weight="400" x="0" y="9">Developer</tspan></text><path fill="#fff" d="M83.7 63.567h150v69.9h-150z"/><path stroke="#dfdfdf" stroke-linecap="round" stroke-linejoin="round" stroke-width="2" clip-path="url(#a)" d="M83.7 63.567h150v69.9h-150z"/><text transform="translate(123.7 91.517)" fill="#212121"><tspan font-family="Roboto" font-size="12" font-weight="400" x=".061" y="11">Change code</tspan></text><path fill="#fff" d="M255.7 63.567h150v69.9h-150z"/><path stroke="#dfdfdf" stroke-linecap="round" stroke-linejoin="round" stroke-width="2" clip-path="url(#b)" d="M255.7 63.567h150v69.9h-150z"/><text transform="translate(296.7 77.517)" fill="#212121"><tspan font-family="Roboto" font-size="12" font-weight="400" x="1.796" y="11">Commit and </tspan> <tspan font-family="Roboto" font-size="12" font-weight="400" x="3.164" y="25">push to app</tspan> <tspan font-family="Roboto" font-size="12" font-weight="400" x="7.79" y="39">repository</tspan></text><title>zone external - yellow</title><path fill="#e5f2ec" d="M63.5 173.5h929v134h-929z"/><text transform="translate(73.5 188.5)" fill="#757575"><tspan font-family="Roboto" font-size="10" font-weight="400" x="0" y="9">Cloud Build on App </tspan> <tspan font-family="Roboto" font-size="10" font-weight="400" x="0" y="20">Repository</tspan></text><path fill="#fff" d="M303.7 217.5h150v69.9h-150z"/><path stroke="#dfdfdf" stroke-linecap="round" stroke-linejoin="round" stroke-width="2" clip-path="url(#c)" d="M303.7 217.5h150v69.9h-150z"/><text transform="translate(344.7 238.45)" fill="#212121"><tspan font-family="Roboto" font-size="12" font-weight="400" x="12.168" y="11">Run unit</tspan> <tspan font-family="Roboto" font-size="12" font-weight="400" x="20.714" y="25">tests</tspan></text><path fill="#fff" d="M473.7 217.5h150v69.9h-150z"/><path stroke="#dfdfdf" stroke-linecap="round" stroke-linejoin="round" stroke-width="2" clip-path="url(#d)" d="M473.7 217.5h150v69.9h-150z"/><text transform="translate(508.7 238.45)" fill="#212121"><tspan font-family="Roboto" font-size="12" font-weight="400" x=".104" y="11">Build container</tspan> <tspan font-family="Roboto" font-size="12" font-weight="400" x="23.477" y="25">image</tspan></text><path fill="#fff" d="M643.7 217.5h150v69.9h-150z"/><path stroke="#dfdfdf" stroke-linecap="round" stroke-linejoin="round" stroke-width="2" clip-path="url(#e)" d="M643.7 217.5h150v69.9h-150z"/><text transform="translate(678.7 238.45)" fill="#212121"><tspan font-family="Roboto" font-size="12" font-weight="400" x=".451" y="11">Push container</tspan> <tspan font-family="Roboto" font-size="12" font-weight="400" x="23.977" y="25">image</tspan></text><path fill="#fff" d="M813.7 217.5h158.8v69.9H813.7z"/><path stroke="#dfdfdf" stroke-linecap="round" stroke-linejoin="round" stroke-width="2" clip-path="url(#f)" d="M813.7 217.5h158.8v69.9H813.7z"/><text transform="translate(828.7 231.45)" fill="#212121"><tspan font-family="Roboto" font-size="12" font-weight="400" x="8.994" y="11">Update manifest and</tspan> <tspan font-family="Roboto" font-size="12" font-weight="400" x="16.819" y="25">push to candidate </tspan> <tspan font-family="Roboto" font-size="12" font-weight="400" x=".108" y="39">branch of env repository</tspan></text><title>zone external - yellow</title><path fill="#ece7f6" d="M63.5 328.533h580.2v134H63.5z"/><text transform="translate(73.5 343.533)" fill="#757575"><tspan font-family="Roboto" font-size="10" font-weight="400" x="0" y="9">Cloud Build on Env </tspan> <tspan font-family="Roboto" font-size="10" font-weight="400" x="0" y="20">Repository</tspan></text><path fill="#fff" d="M303.7 372.633h150v69.9h-150z"/><path stroke="#dfdfdf" stroke-linecap="round" stroke-linejoin="round" stroke-width="2" clip-path="url(#g)" d="M303.7 372.633h150v69.9h-150z"/><text transform="translate(335.7 393.583)" fill="#212121"><tspan font-family="Roboto" font-size="12" font-weight="400" x=".071" y="11">Apply manifests</tspan> <tspan font-family="Roboto" font-size="12" font-weight="400" x="5.919" y="25">to Kubernetes</tspan></text><path fill="#fff" d="M473.7 372.633h150v69.9h-150z"/><path stroke="#dfdfdf" stroke-linecap="round" stroke-linejoin="round" stroke-width="2" clip-path="url(#h)" d="M473.7 372.633h150v69.9h-150z"/><text transform="translate(499.7 386.583)" fill="#212121"><tspan font-family="Roboto" font-size="12" font-weight="400" x=".272" y="11">Update production</tspan> <tspan font-family="Roboto" font-size="12" font-weight="400" x="18.46" y="25">branch with</tspan> <tspan font-family="Roboto" font-size="12" font-weight="400" x="1.916" y="39">applied manifests</tspan></text><path d="M183.85 220.84L284 252.55l-100.15 31.71L83.7 252.55z" fill="#fff"/><path d="M183.85 220.84L284 252.55l-100.15 31.71L83.7 252.55z" stroke="#dfdfdf" stroke-linecap="round" stroke-linejoin="round"/><text transform="translate(115.74 237.916)" fill="#212121"><tspan font-family="Roboto" font-size="12" font-weight="400" x="40.277" y="11">Detect new </tspan> <tspan font-family="Roboto" font-size="12" font-weight="400" x="49.616" y="25">commit</tspan></text><path d="M183.85 375.873L284 407.583l-100.15 31.71-100.15-31.71z" fill="#fff"/><path d="M183.85 375.873L284 407.583l-100.15 31.71-100.15-31.71z" stroke="#dfdfdf" stroke-linecap="round" stroke-linejoin="round"/><text transform="translate(115.74 392.95)" fill="#212121"><tspan font-family="Roboto" font-size="12" font-weight="400" x="23.492" y="11">Detect change on </tspan> <tspan font-family="Roboto" font-size="12" font-weight="400" x="23.961" y="25">candidate branch</tspan></text><text transform="translate(508.2 343.125)" fill="#757575"><tspan font-family="Roboto" font-size="10" font-weight="400" x="0" y="9">Continuous Delivery Pipeline</tspan></text><g><text transform="translate(843.7 188.092)" fill="#757575"><tspan font-family="Roboto" font-size="10" font-weight="400" x="0" y="9">Continuous Integration Pipeline</tspan></text></g><g><path d="M234.2 98.517h11.1a.5.5 0 1 0 0-1h-11.1a.5.5 0 1 0 0 1zm19.1-1h-8v1h8zm-4.354-3.147l4 4v-.707l-4 4 .708.707 4-4 .353-.353-.353-.354-4-4z" fill="#616161"/></g><g><path d="M330.2 133.467V163l.5-.5-101.193.069H184.2a.5.5 0 0 0-.5.5V211.6a.5.5 0 1 0 1 0v-48.531l-.5.5h45.308L330.7 163.5a.5.5 0 0 0 .5-.5v-29.533a.5.5 0 0 0-1 0zM184.7 219.6v-8h-1v8zm3.146-4.354l-4 4h.708l-4-4-.708.708 4 4 .354.353.354-.353 4-4z" fill="#616161"/></g><g><path d="M283.7 252.45h11.1a.5.5 0 0 0 0-1h-11.1a.5.5 0 1 0 0 1zm19.1-1h-8v1h8zm-4.354-3.146l4 4v-.708l-4 4 .708.708 4-4 .353-.354-.353-.354-4-4z" fill="#616161"/></g><g><path d="M454.2 252.45h11.1a.5.5 0 0 0 0-1h-11.1a.5.5 0 1 0 0 1zm19.1-1h-8v1h8zm-4.354-3.146l4 4v-.708l-4 4 .708.708 4-4 .353-.354-.353-.354-4-4z" fill="#616161"/></g><g><path d="M624.2 252.45h11.1a.5.5 0 0 0 0-1h-11.1a.5.5 0 1 0 0 1zm19.1-1h-8v1h8zm-4.354-3.146l4 4v-.708l-4 4 .708.708 4-4 .353-.354-.353-.354-4-4z" fill="#616161"/></g><g><path d="M794.2 252.45h11.1a.5.5 0 0 0 0-1h-11.1a.5.5 0 0 0 0 1zm19.1-1h-8v1h8zm-4.354-3.146l4 4v-.708l-4 4 .708.708 4-4 .353-.354-.353-.354-4-4z" fill="#616161"/></g><g><path d="M892.6 287.4v30.533l.5-.5H750.7l-471.192.07h-95.141a.5.5 0 0 0-.5.5v48.864a.5.5 0 0 0 1 0v-48.865l-.5.5h95.14l471.193-.069h142.4a.5.5 0 0 0 .5-.5V287.4a.5.5 0 0 0-1 0zm-707.733 87.467v-8h-1v8zm3.146-4.354l-4 4h.707l-4-4-.707.707 4 4 .354.354.353-.354 4-4z" fill="#616161"/></g><g><path d="M284 407.583h11.1a.5.5 0 0 0 0-1H284a.5.5 0 1 0 0 1zm19.1-1h-8v1h8zm-4.354-3.146l4 4v-.707l-4 4 .708.707 4-4 .353-.354-.353-.353-4-4z" fill="#616161"/></g><g><path d="M454.2 407.583h11.1a.5.5 0 0 0 0-1h-11.1a.5.5 0 1 0 0 1zm19.1-1h-8v1h8zm-4.354-3.146l4 4v-.707l-4 4 .708.707 4-4 .353-.354-.353-.353-4-4z" fill="#616161"/></g></g></svg>